<?xml version="1.0" encoding="UTF-8"?>
<svg width="347px" height="195px" viewBox="0 0 347 195" version="1.1" xmlns="http://www.w3.org/2000/svg" xmlns:xlink="http://www.w3.org/1999/xlink">
    <title>footer-21</title>
    <g id="Page-1" stroke="none" stroke-width="1" fill="none" fill-rule="evenodd">
        <g id="Index" transform="translate(-788.000000, -4618.000000)" fill-rule="nonzero">
            <g id="footer-21" transform="translate(788.000000, 4618.000000)">
                <g id="Group" transform="translate(43.000000, 174.000000)" fill="#FFFFFF">
                    <g id="Path_180">
                        <path d="M10.9,2.1 L19.2,2.1 L19.2,4.2 L0.4,4.2 L0.4,2.1 L8.4,2.1 L8.4,0.3 L11.6,0.4 C11.6,0.5 11.5,0.7 11,0.8 L11,2.1 L10.9,2.1 Z M18.4,10.7 L18.4,17.6 C18.4,20 17.3,20.3 13.9,20.3 C13.8,19.7 13.7,19.2 13.5,18.6 L8,18.6 L8,19.4 L5.8,19.4 L5.8,13.6 L13.9,13.6 L13.9,17.7 L14.9,17.7 C15.9,17.7 15.9,17.7 15.9,17.3 L15.9,12.8 L3.8,12.8 L3.8,20.2 L1.3,20.2 L1.3,10.7 L18.4,10.7 Z M4,5 L15.7,5 L15.7,9.6 L4,9.6 L4,5 Z M13,8 L13,6.7 L6.4,6.7 L6.4,8 L13,8 Z M11.6,16.7 L11.6,15.3 L7.9,15.3 L7.9,16.7 L11.6,16.7 Z" id="Shape"></path>
                    </g>
                    <g id="Path_181" transform="translate(33.000000, 0.000000)">
                        <path d="M20.9,17 L20.9,19.2 L13.9,19.2 L13.9,20.2 L11.6,20.2 L11.6,9.2 C11.3,9.7 11,10.1 10.6,10.5 C10.1,9.9 9.6,9.2 9.1,8.7 C8.6,11.4 7.9,14.1 7,16.7 L9,16.3 C8.9,15.2 8.6,14.1 8.2,13.1 L10,12.3 C10.6,14.4 11.1,16.6 11.4,18.8 L9.4,19.6 C9.4,19.2 9.4,18.7 9.3,18.3 C7.8,18.7 6.4,19 5.2,19.3 C5.2,19.4 5.1,19.6 4.9,19.7 L3.9,17.3 L4.9,17.2 C5.8,14 6.5,10.8 7,7.5 L9.7,8.2 C10.1,7.5 10.5,6.8 11,6 L6.2,6 C5.6,10.6 4.7,15.7 2.5,19.3 C2,18.7 1.4,18.1 0.8,17.6 C2.5,14.7 3.3,10.2 3.7,5.9 L1.3,5.9 L1.3,3.4 L3.8,3.4 C3.9,2.4 4,1.4 3.9,0.5 L6.8,0.8 C6.8,1.1 6.5,1.2 6.2,1.2 C6.2,1.9 6.1,2.6 6.1,3.4 L10.7,3.4 L10.7,5.5 C11.5,3.8 12.2,2.1 12.7,0.3 L15.5,1.1 C15.4,1.3 15.2,1.4 14.9,1.4 C14.6,2.4 14.2,3.4 13.8,4.3 L15.5,4.3 C16.1,3.1 16.5,1.8 16.9,0.5 L19.6,1.3 C19.5,1.5 19.3,1.6 19,1.6 C18.7,2.5 18.3,3.4 17.9,4.3 L20.6,4.3 L20.6,6.7 L18.1,6.7 L18.1,8.7 L20.5,8.7 L20.5,10.8 L18.1,10.8 L18.1,12.8 L20.5,12.8 L20.5,14.9 L18.1,14.9 L18.1,17 L20.9,17 Z M15.7,8.7 L15.7,6.7 L13.7,6.7 L13.7,8.7 L15.7,8.7 Z M15.7,12.8 L15.7,10.8 L13.7,10.8 L13.7,12.8 L15.7,12.8 Z M13.7,14.9 L13.7,17 L15.7,17 L15.7,14.9 L13.7,14.9 Z" id="Shape"></path>
                    </g>
                    <g id="Path_182" transform="translate(68.000000, 0.000000)">
                        <path d="M3,13.7 C2.9,15.7 2.7,17.8 1.7,19 L0.3,18.3 C1,16.8 1.4,15.2 1.4,13.5 L3,13.7 Z M14,8.7 C14.4,10.1 14.9,11.5 15.5,12.8 C16.2,11.5 16.7,10 17,8.6 L19.9,9.3 C19.9,9.4 19.6,9.6 19.3,9.6 C18.8,11.6 18,13.5 16.9,15.2 C17.9,16.5 19.2,17.6 20.7,18.3 C20,18.9 19.4,19.6 19,20.4 C17.6,19.6 16.4,18.5 15.3,17.3 C14.1,18.6 12.6,19.7 10.9,20.4 C10.6,20 10.2,19.1 9.8,18.6 C9.4,20.3 8.4,20.3 5.9,20.3 C5.9,19.6 5.7,18.9 5.3,18.2 L7,18.2 C7.3,18.2 7.4,18.2 7.6,17.9 C7.9,17.3 8,16.6 8,15.9 L7.2,16.2 C7,15.2 6.6,14.3 6.2,13.4 L7.2,13.1 C7.5,13.8 7.8,14.5 8,15.2 L8,15.2 C8,14.5 8.1,13.7 8.1,12.5 L3.7,12.5 L3.7,12.9 L1.6,12.9 L1.6,1.1 L10,1.1 L10,3.2 L7.3,3.2 L7.3,4.5 L9.5,4.5 L9.5,6.3 L7.3,6.3 L7.3,7.6 L9.5,7.6 L9.5,9.6 L7.3,9.6 L7.3,10.9 L9,10.9 L10.3,11 L10.3,11.7 C10.2,15.1 10,17 9.9,18.3 C11.4,17.6 12.8,16.6 13.8,15.4 C12.8,13.6 12,11.7 11.6,9.6 L14,8.7 Z M3.4,18 L3.4,17.2 C3.4,16.2 3.4,15.1 3.3,14.1 L4.4,14 C4.6,15.3 4.7,16.6 4.7,17.9 L3.4,18 Z M5.4,3.1 L3.9,3.1 L3.9,4.4 L5.4,4.4 L5.4,3.1 Z M5.4,7.6 L5.4,6.3 L3.9,6.3 L3.9,7.6 L5.4,7.6 Z M3.9,9.4 L3.9,10.7 L5.4,10.7 L5.4,9.4 L3.9,9.4 Z M5.4,17.3 C5.4,16.1 5.1,14.9 4.7,13.8 L5.8,13.5 C6.2,14.6 6.5,15.8 6.5,17 L5.4,17.3 Z M20.2,1.2 C20.1,1.4 19.9,1.5 19.6,1.5 C19,2.5 18.4,3.4 17.6,4.3 C18.7,5 19.8,5.7 20.7,6.3 L19.2,8.3 C18.2,7.5 17.1,6.7 16,6.1 C14.7,7.3 13.3,8.3 11.6,9 C11.1,8.4 10.5,7.7 9.9,7.2 C11.3,6.6 12.6,5.8 13.8,4.8 C12.7,4.2 11.6,3.7 10.6,3.3 L12.1,1.6 C13.3,2.1 14.5,2.6 15.6,3.1 C16.3,2.2 17,1.3 17.6,0.3 L20.2,1.2 Z" id="Shape"></path>
                    </g>
                    <g id="Path_183" transform="translate(103.000000, 3.000000)">
                        <path d="M0.7,12.3 L19.7,12.3 L19.7,15 L0.7,15 L0.7,12.3 Z M2.4,0.2 L17.7,0.2 L17.7,2.9 L2.4,2.9 L2.4,0.2 Z" id="Shape"></path>
                    </g>
                    <g id="Path_184" transform="translate(137.000000, 0.000000)">
                        <path d="M18,10.5 C18,11.2 18,11.2 18.3,11.2 L18.7,11.2 C18.8,10.6 18.9,10 18.8,9.4 C19.2,9.7 19.7,10 20.2,10.1 C20.2,11.9 20.1,13 18.4,13 L17.6,13 C15.9,13 15.9,11.7 15.9,10.6 L15.9,7.2 L14.6,7.2 L14.2,9.3 C14.8,9.6 15.3,10 15.7,10.6 L14.4,12 C14.1,11.6 13.7,11.3 13.3,11 C12.7,12 11.8,12.8 10.8,13.4 C10.6,13 10.3,12.6 10,12.3 L10,12.7 C6.9,12.8 3.7,13 1.6,13.1 C1.6,13.3 1.5,13.4 1.3,13.4 L0.7,11.7 C2,11.7 3.2,11.7 4.5,11.6 L4.5,11 L1.8,11 L1.8,9.7 L4.5,9.7 L4.5,8.7 L6.2,8.8 C6.1,8.4 6,8.1 6.1,7.7 L4.7,7.7 C4.4,8.7 3.7,9.4 1.3,9.8 C1.1,9.4 0.8,9 0.5,8.7 C1.9,8.6 2.6,8.3 3,7.7 L1,7.7 L1,6.3 L4.5,6.3 L4.5,5.7 L1.8,5.7 L1.8,4.6 L4.5,4.6 L4.5,3.8 L5.3,3.8 L5.3,3.2 L0.7,3.2 L0.7,1.4 L5.3,1.4 L5.3,0.3 L8.2,0.4 C8.2,0.7 8.1,0.7 7.6,0.8 L7.6,1.4 L12.1,1.4 L12.1,0.3 L15.2,0.4 C15.2,0.7 15.1,0.7 14.6,0.8 L14.6,1.4 L19.4,1.4 L19.4,3.2 L14.6,3.2 L14.6,3.9 L12.1,3.9 L12.1,3.2 L7.6,3.2 L7.6,3.9 L6.9,3.9 C6.9,4 6.8,4.2 6.3,4.3 L6.3,4.6 L8.8,4.6 L8.8,5.9 L6.3,5.9 L6.3,6.6 L9.8,6.6 L9.8,7.9 L7.3,7.9 L7.3,8.5 C7.3,8.6 7.4,8.6 7.6,8.6 L8.4,8.6 C8.7,8.6 8.7,8.6 8.8,8.2 C9.2,8.4 9.6,8.5 10.1,8.6 C10.1,9.2 9.6,9.7 9,9.7 L8.9,9.7 L7.6,9.7 C7.3,9.7 6.9,9.7 6.6,9.6 L6.6,9.6 L6.6,10.2 L9.4,10.2 L9.4,11.5 L6.6,11.5 L6.6,12.2 L10,12.1 L10,12.1 C10.7,11.6 11.2,11.1 11.7,10.4 C11.1,10.1 10.7,9.8 10.2,9.6 L11.3,8.3 C11.7,8.4 12,8.6 12.3,8.9 C12.4,8.6 12.5,8.3 12.4,7.9 L10.3,7.9 L10.3,5.7 L12.5,5.7 L12.5,4.2 L15,4.3 C15,4.4 14.9,4.6 14.6,4.6 L14.6,5.6 L17.5,5.6 L17.5,10.8 L18,10.5 Z M0.7,17 L0.7,15.6 L19.9,15.6 L19.9,17 L15.7,17 C16.8,17.6 17.9,18.3 18.9,19.1 L17.2,20.2 C16.9,19.9 16.6,19.7 16.2,19.5 C11.3,19.6 6.2,19.8 2.9,19.8 C2.9,20 2.8,20.1 2.6,20.1 L1.9,18.3 L5,18.3 C5.3,18 5.6,17.6 5.7,17.2 L0.6,17.2 L0.7,17 Z M3.4,13.5 L17.3,13.5 L17.3,14.9 L3.4,14.9 L3.4,13.5 Z M8.4,17 L8.4,17 C8.4,17.1 8.3,17.3 8,17.3 C7.8,17.6 7.6,17.9 7.3,18.1 L14.2,18.1 C13.8,17.8 13.3,17.6 12.8,17.4 L13.5,17 L8.4,17 Z" id="Shape"></path>
                    </g>
                    <g id="Path_185" transform="translate(171.000000, 0.000000)">
                        <path d="M7.2,1.4 C7.1,1.5 6.9,1.7 6.6,1.5 C5.4,3.2 3.9,4.8 2.4,6.3 C2,5.6 1.5,5 1,4.5 C2.4,3.3 3.5,1.9 4.5,0.3 L7.2,1.4 Z M14.9,7.3 L12.1,7.3 L12.1,19.8 L9.7,19.8 L9.7,7.3 L6.9,7.3 L6.9,6.2 L6.8,6.2 C6.4,7 6,7.9 5.5,8.9 L6.1,9 C6.1,9.1 5.8,9.3 5.5,9.4 L5.5,20.2 L3.1,20.2 L3.1,12.6 C2.8,13.1 2.4,13.6 2,14 C1.6,13.2 1.2,12.5 0.7,11.8 C2.4,9.7 3.7,7.4 4.6,4.9 L6.7,5.7 L6.7,5 L9.5,5 L9.5,0.7 L12.4,0.8 C12.4,0.9 12.3,1.1 11.8,1.2 L11.8,5 L14.6,5 L14.6,7.2 L14.9,7.3 Z M9.6,10 C9.6,10.1 9.5,10.3 9.2,10.3 C8.9,13 8.5,15.9 7.7,17.6 C7.3,17.3 6.6,16.8 6.2,16.5 C6.9,15 7.2,12.1 7.3,9.5 L9.6,10 Z M14,1 C14.6,1.9 15,2.8 15.4,3.8 L13.6,4.6 C13.3,3.9 12.8,2.6 12.3,1.8 L14,1 Z M13.3,16.1 C13.2,14 12.9,11.9 12.5,9.8 C14.2,9.5 14.3,9.5 14.3,9.5 C14.7,11.6 15.1,13.7 15.3,15.8 L13.3,16.1 Z M20.9,7.4 L20.9,9.7 L19.2,9.7 L19.2,17.4 C19.2,19.6 18.5,20.1 15.1,20.1 C15,19.2 14.7,18.4 14.4,17.6 L16.4,17.6 C16.7,17.6 16.8,17.6 16.8,17.3 L16.8,9.7 L15,9.7 L15,7.5 L20.9,7.4 Z M20.5,1.4 L20.5,3.6 L15.6,3.6 L15.6,1.4 L20.5,1.4 Z" id="Shape"></path>
                    </g>
                    <g id="Path_186" transform="translate(206.000000, 0.000000)">
                        <path d="M20.6,9 L8.1,9 L8.1,6.7 L6.7,6.7 L6.7,10.6 L8.9,10.2 L8.9,10.8 L15.4,10.8 L15.4,9.1 L18.5,9.2 C18.5,9.5 18.4,9.5 17.9,9.6 L17.9,10.9 L20.4,10.9 L20.4,13.3 L17.9,13.3 L17.9,17.7 C17.9,20.1 17.1,20.4 13.3,20.4 C13.1,19.6 12.9,18.8 12.6,18 L15,18 C15.2,18 15.4,17.9 15.4,17.7 L15.4,17.6 L15.4,13.2 L8.7,13.2 L8.7,12.6 L6.9,13 L6.9,20.2 L4.5,20.2 L4.5,13.6 C3.7,13.7 2.8,14 2.1,14.2 C2.1,14.5 2,14.5 1.7,14.6 L0.9,11.8 C1.9,11.7 3,11.4 4.4,11.2 L4.4,6.7 L3.1,6.7 C2.8,7.8 2.5,8.9 2.3,9.8 C1.9,9.3 1.3,8.9 0.8,8.5 C1.5,6.2 1.8,3.8 1.9,1.3 L4.4,1.9 C4.4,2 4.1,2.2 3.8,2.2 C3.8,2.9 3.7,3.6 3.5,4.3 L4.3,4.3 L4.3,0.2 L7.2,0.3 C7.2,0.4 7.1,0.6 6.6,0.7 L6.6,4.2 L8.8,4.2 L8.8,6.4 L13,6.4 L13,4.6 L9.2,4.6 L9.2,2.2 L13,2.2 L13,0.1 L16.1,0.2 C16.1,0.5 16,0.5 15.5,0.6 L15.5,2.1 L19.4,2.1 L19.4,4.3 L15.5,4.3 L15.5,6.1 L20.6,6.1 L20.6,8.6 L20.6,8.6 L20.6,9 L20.6,9 Z M11.3,17.8 C10.8,16.6 10.1,15.5 9.3,14.4 L11.3,13.4 C12.1,14.4 12.9,15.5 13.4,16.6 L11.3,17.8 Z" id="Shape"></path>
                    </g>
                    <g id="Path_187" transform="translate(242.000000, 1.000000)">
                        <path d="M18.6,16 L18.6,18.4 L2.5,18.4 L2.5,19.2 L0,19.2 L0,0 L18.1,0 L18.1,2.2 L2.5,2.2 L2.5,16 L18.6,16 Z M3.7,15 L3.7,9.2 L9.6,9.2 L9.6,15 L3.7,15 Z M5.7,10.9 L5.7,13.1 L7.4,13.1 L7.4,10.9 L5.7,10.9 Z M14.1,3.2 L14.1,8.3 L5.8,8.3 L5.8,3.2 L14.1,3.2 Z M11.7,6.7 L11.7,4.9 L8.2,4.9 L8.2,6.6 L11.7,6.7 L11.7,6.7 Z M16.5,9.2 L16.5,15 L10.5,15 L10.5,9.2 L16.5,9.2 Z M14.3,13.3 L14.3,10.9 L12.6,10.9 L12.6,13.1 L14.3,13.1 L14.3,13.3 Z" id="Shape"></path>
                    </g>
                </g>
                <g id="Group" transform="translate(34.000000, 79.000000)" fill="#FFFFFF">
                    <g id="Path_150">
                        <polygon id="Path" points="10.9 8.1 9.2 0.9 0.1 0.9 0.1 18.3 6.2 18.3 6.2 7 8.4 18.2 13.4 18.2 15.6 7.4 15.6 18.2 21.6 18.2 21.6 0.9 12.6 0.9"></polygon>
                    </g>
                    <g id="Path_151" transform="translate(128.000000, 0.000000)">
                        <polygon id="Path" points="0.2 6 5.2 6 5.2 18.3 11.2 18.3 11.2 6 16.2 6 16.2 0.9 0.3 0.9"></polygon>
                    </g>
                    <g id="Path_152" transform="translate(76.000000, 0.000000)">
                        <path d="M0.2,0.9 L0.2,18.3 L6.2,18.3 L6.2,14.9 L16,14.9 L16,0.9 L0.2,0.9 Z M10,9.8 L6.2,9.8 L6.2,5.9 L10,5.9 L10,9.8 Z" id="Shape"></path>
                    </g>
                    <g id="Path_153" transform="translate(111.000000, 0.000000)">
                        <path d="M15.8,14.9 L15.8,0.9 L0,0.9 L0,18.3 L6,18.3 L6,14.9 L7.2,14.9 L9.8,18.3 L15.8,18.3 L13.2,14.9 L15.8,14.9 Z M9.8,9.8 L6,9.8 L6,5.9 L9.8,5.9 L9.8,9.8 Z" id="Shape"></path>
                    </g>
                    <g id="Path_154" transform="translate(59.000000, 0.000000)">
                        <path d="M1.8,0.9 L0,18.3 L6,18.3 L6.4,15 L9.4,15 L9.8,18.3 L15.8,18.3 L14,0.9 L1.8,0.9 Z M6.9,10 L7.3,5.9 L8.5,5.9 L8.9,10 L6.9,10 Z" id="Shape"></path>
                    </g>
                    <g id="Path_155" transform="translate(93.000000, 0.000000)">
                        <path d="M0.7,0.9 L0.7,18.3 L16.5,18.3 L16.5,0.9 L0.7,0.9 Z M10.5,13.3 L6.7,13.3 L6.7,6 L10.5,6 L10.5,13.3 Z" id="Shape"></path>
                    </g>
                    <g id="Path_156" transform="translate(23.000000, 0.000000)">
                        <polygon id="Path" points="0.8 18.3 16.6 18.3 16.6 13.2 6.8 13.2 6.8 11.6 16.6 11.6 16.6 7.5 6.8 7.5 6.8 5.9 16.6 5.9 16.6 0.8 0.8 0.8"></polygon>
                    </g>
                    <g id="Path_157" transform="translate(41.000000, 0.000000)">
                        <polygon id="Path" points="0.5 18.3 16.4 18.3 16.4 7.5 8.6 7.5 8.6 11.6 10.3 11.6 10.3 13.2 6.6 13.2 6.6 6 16.4 6 16.4 0.9 0.5 0.9"></polygon>
                    </g>
                    <g id="Path_158" transform="translate(151.000000, 0.000000)">
                        <path d="M53,6 L58,6 L58,18.4 L64,18.4 L64,6 L69,6 L69,0.9 L53.1,0.9 L53.1,6 L53,6 Z M96.4,0.9 L94.6,18.3 L100.6,18.3 L101,15 L104,15 L104.4,18.3 L110.4,18.3 L108.6,0.9 L96.4,0.9 Z M101.5,10 L101.9,5.9 L103.1,5.9 L103.5,10 L101.5,10 Z M86.8,13.3 L85.6,13.3 L84.3,0.9 L78.3,0.9 L80.1,18.3 L92.3,18.3 L94.1,0.9 L88.1,0.9 L86.8,13.3 Z M118.1,0.9 L112.1,0.9 L112.1,18.3 L127.9,18.3 L127.9,13.2 L118.1,13.2 L118.1,0.9 Z M70.4,18.3 L76.4,18.3 L76.4,0.9 L70.4,0.9 L70.4,18.3 Z M18,18.3 L33.8,18.3 L33.8,13.2 L24,13.2 L24,11.6 L33.8,11.6 L33.8,7.7 L24,7.7 L24,6 L33.8,6 L33.8,0.9 L18,0.9 L18,18.3 Z M0.5,18.3 L6.5,18.3 L6.5,11.6 L16.3,11.6 L16.3,7.7 L6.5,7.7 L6.5,6 L16.3,6 L16.3,0.9 L0.5,0.9 L0.5,18.3 Z M35.6,11.6 L45.4,11.6 L45.4,13.3 L35.6,13.3 L35.6,18.4 L51.4,18.4 L51.4,7.7 L41.6,7.7 L41.6,6 L51.4,6 L51.4,0.9 L35.6,0.9 L35.6,11.6 Z" id="Shape"></path>
                    </g>
                </g>
                <g id="Group" transform="translate(42.000000, 139.000000)" fill="#FFFFFF">
                    <path d="M7.6,0.6 C13,0.6 14.5,3.5 14.5,11.4 C14.5,17.5 14.2,23.2 7.6,23.2 C2.2,23.2 0.7,20.3 0.7,12.4 C0.7,6.3 1,0.6 7.6,0.6 Z M5.2,13.4 C5.2,19 5.7,20.2 7.6,20.2 C9.6,20.2 10,18.4 10,12.8 L10,10.4 C10,4.8 9.5,3.6 7.6,3.6 C5.6,3.6 5.2,5.3 5.2,11 L5.2,13.4 Z" id="Shape"></path>
                    <path d="M40.6,16.3 C40.6,18.9 41.1,20.3 43.1,20.3 C45.3,20.3 45.6,18.7 45.6,16.7 C45.6,14.7 45.2,12.9 42.7,12.9 L41.2,12.9 L41.2,10 L42.7,10 C44.6,10 45.3,8.3 45.3,6.5 C45.3,4.4 44.6,3.6 43.1,3.6 C41.2,3.6 40.8,5.1 40.8,7.2 L36.6,7.2 C36.6,2.8 38.9,0.7 43.1,0.7 C47.1,0.7 49.5,2.5 49.5,6.4 C49.5,9.1 48.2,10.8 46.1,11.3 L46.1,11.4 C49,11.9 50,13.8 50,16.6 C50,19.6 48.8,23.3 42.7,23.3 C38.4,23.3 36.3,20.7 36.3,16.5 L36.3,16.4 L40.6,16.3 L40.6,16.3 Z" id="Path"></path>
                    <polygon id="Path" points="76.6 0 77.1 0 77.1 25 76.6 25"></polygon>
                    <path d="M110.5,22.7 L96.9,22.7 C96.9,18.8 98.5,16 101.8,13 L103.6,11.3 C105.6,9.5 105.9,8.5 105.9,6.2 C105.9,4.4 105.2,3.4 103.7,3.4 C101.5,3.4 101.2,5.4 101.2,7.7 L96.9,7.7 L96.9,6.9 C96.9,2.8 99,0.5 103.8,0.5 C108.3,0.5 110.4,2.7 110.4,6.5 C110.4,9.4 109.5,11.3 107,13.5 L104.5,15.8 C103.2,17 102.4,18.2 102.2,19.1 L110.5,19.1 L110.5,22.7 L110.5,22.7 Z" id="Path"></path>
                    <polygon id="Path" points="175.9 6.8 184 12.7 175.9 18.7"></polygon>
                    <path d="M222.3,22.7 L208.7,22.7 C208.7,18.8 210.3,16 213.6,13 L215.4,11.3 C217.4,9.5 217.7,8.5 217.7,6.2 C217.7,4.4 217,3.4 215.5,3.4 C213.3,3.4 213,5.4 213,7.7 L208.7,7.7 L208.7,6.9 C208.7,2.8 210.8,0.5 215.6,0.5 C220.1,0.5 222.2,2.7 222.2,6.5 C222.2,9.4 221.3,11.3 218.8,13.5 L216.3,15.8 C215,17 214.2,18.2 214,19.1 L222.3,19.1 L222.3,22.7 L222.3,22.7 Z" id="Path"></path>
                    <path d="M135.4,5.5 L135.4,1.1 L149.4,1.1 L149.4,5 C146,10.1 143.7,17.8 143.4,22.6 L138,22.6 C138.3,17.5 141.2,9.6 144.4,5.5 L135.4,5.5 Z" id="Path"></path>
                    <path d="M261.7,6.4 C261.7,8.9 260.6,10.6 258.6,11 L258.6,11.1 C261,11.5 262.3,13.3 262.3,16.3 C262.3,20 261,23.2 255,23.2 C249,23.2 247.7,20.3 247.7,16.3 C247.7,13.8 248.7,11.5 251.3,11.1 L251.3,11 C249.4,10.5 248.3,9 248.3,6.4 C248.3,3.1 250.1,0.7 255,0.7 C259.9,0.7 261.7,2.9 261.7,6.4 Z M253,16.3 C253,18.3 253.4,19.8 255.1,19.8 C256.8,19.8 257.2,18.3 257.2,16.3 C257.2,14.3 256.8,12.9 255.1,12.9 C253.4,12.9 253,14.4 253,16.3 Z M256.9,6.8 C256.9,5.3 256.5,4 255.1,4 C253.7,4 253.3,5.2 253.3,6.8 C253.3,8.9 253.9,9.6 255.1,9.6 C256.3,9.6 256.9,8.9 256.9,6.8 Z" id="Shape"></path>
                </g>
                <path d="M311.9,37.4 L311.9,64.8 L346.9,64.8 L346.9,37.4 L311.9,37.4 Z M335.4,58.7 L323.7,58.7 L323.7,53.5 L335.4,53.5 L335.4,58.7 Z M335.4,47.6 L323.7,47.6 L323.7,43.5 L335.4,43.5 L335.4,47.6 Z M346.4,8.1 L311.8,8.1 L311.8,34.6 L346.4,34.6 L346.4,8.1 Z M335,28.5 L323.3,28.5 L323.3,24.1 L335,24.1 L335,28.5 Z M335,18.3 L323.3,18.3 L323.3,14 L335,14 L335,18.3 Z M253.5,8.1 L226.6,8.1 L226.6,64.9 L237.7,64.9 L237.7,32.3 L253.5,32.3 L253.5,8.1 L253.5,8.1 Z M242.5,26.6 L237.7,26.6 L237.7,23.4 L242.5,23.4 L242.5,26.6 Z M242.5,17.5 L237.7,17.5 L237.7,14.3 L242.5,14.3 L242.5,17.5 Z M289.2,64.8 L309.4,64.8 L309.4,8 L289.2,8 L289.2,64.8 Z M297.7,14.3 L300.4,14.3 L300.4,58.8 L297.7,58.8 L297.7,14.3 Z M266.7,40.7 L269.9,40.7 L269.9,34.6 L239.5,34.6 L239.5,40.7 L242.7,40.7 L242.7,48.1 L239.1,48.1 L239.1,54.1 L242.7,54.1 L242.7,65 L253,65 L253,54.1 L256.4,54.1 L256.4,65 L266.7,65 L266.7,54.1 L270.3,54.1 L270.3,48.1 L266.7,48.1 L266.7,40.7 Z M256.4,48.1 L253,48.1 L253,40.7 L256.4,40.7 L256.4,48.1 Z M255.9,32.3 L271.7,32.3 L271.7,64.9 L282.9,64.9 L282.9,8.1 L256,8.1 L256,32.3 L255.9,32.3 Z M266.8,14.3 L271.6,14.3 L271.6,17.5 L266.8,17.5 L266.8,14.3 Z M266.8,23.5 L271.6,23.5 L271.6,26.7 L266.8,26.7 L266.8,23.5 Z M78.3,19 L75.8,8.1 L64,8.1 L66.6,19 L78.3,19 Z M118.5,54.1 L118.5,47.7 L124.1,47.7 L116.5,32.2 L122.9,32.2 L122.9,25.9 L115.5,25.9 L115.5,19 L122.1,19 L122.1,12.7 L115.5,12.7 L115.5,8 L104,8 L104,12.7 L97.2,12.7 L97.2,8 L86,8 L86,12.7 L79.4,12.7 L79.4,19 L86,19 L86,25.9 L79.2,25.9 L79.2,32.2 L84.8,32.2 L78.6,44.1 L79.6,34.5 L68.3,34.5 L64.9,64.7 L76.2,64.7 L78.4,47.6 L82.6,47.6 L82.6,64.8 L122,64.7 L122,58.4 L93.8,58.4 L93.8,54 L118.5,54 L118.5,54.1 Z M97.3,19 L104.1,19 L104.1,25.9 L97.3,25.9 L97.3,19 Z M97.5,32.2 L103.8,32.2 L105.7,36.2 L95.9,36.2 L97.5,32.2 Z M93.7,42.5 L107.3,42.5 L107.3,47.7 L93.7,47.7 L93.7,42.5 Z M58.3,28.2 L58.3,21.2 L35.7,21.2 L35.7,8 L22.7,8 L22.7,21.2 L0.5,21.2 L0.5,28.2 L21.1,28.2 L0,64.6 L14.5,64.6 L29.5,38.9 L45.3,64.6 L59.5,64.6 L37.7,28.2 L58.3,28.2 Z M78.3,32.2 L75.8,21.3 L64,21.3 L66.6,32.2 L78.3,32.2 Z" id="Shape" fill="#FFFFFF"></path>
                <g id="Group" transform="translate(139.000000, 0.000000)">
                    <g transform="translate(22.000000, 0.000000)" id="Path">
                        <polygon fill="#F48120" points="0.1 0.9 15.3 27.2 15.3 9.7"></polygon>
                        <polygon fill="#C64A1B" points="30.5 0.9 15.3 27.2 15.3 9.7"></polygon>
                        <polygon fill="#F9A64A" points="0.1 0.9 30.5 0.9 15.3 9.7"></polygon>
                    </g>
                    <g transform="translate(44.000000, 10.000000)" id="Path">
                        <polygon fill="#F9A64A" points="21.1 0 0.7 22.6 17.4 17.2"></polygon>
                        <polygon fill="#C64A1B" points="30.5 28.9 0.7 22.6 17.4 17.2"></polygon>
                        <polygon fill="#F48120" points="21.1 0 30.5 28.9 17.4 17.2"></polygon>
                    </g>
                    <g transform="translate(41.000000, 41.000000)" id="Path">
                        <polygon fill="#F48120" points="28.7 12.7 0.9 0.4 11.2 14.6"></polygon>
                        <polygon fill="#F9A64A" points="4.1 30.6 0.9 0.4 11.2 14.6"></polygon>
                        <polygon fill="#C64A1B" points="28.7 12.7 4.1 30.6 11.2 14.6"></polygon>
                    </g>
                    <g transform="translate(0.000000, 10.000000)" id="Path">
                        <polygon fill="#F48120" points="9.6 0 29.9 22.6 13.2 17.2"></polygon>
                        <polygon fill="#C64A1B" points="0.2 28.9 29.9 22.6 13.2 17.2"></polygon>
                        <polygon fill="#F9A64A" points="9.6 0 0.2 28.9 13.2 17.2"></polygon>
                    </g>
                    <g transform="translate(5.000000, 41.000000)" id="Path">
                        <polygon fill="#F9A64A" points="0 12.7 27.7 0.4 17.4 14.6"></polygon>
                        <polygon fill="#C64A1B" points="24.6 30.6 27.7 0.4 17.4 14.6"></polygon>
                        <polygon fill="#F48120" points="0 12.7 24.6 30.6 17.4 14.6"></polygon>
                    </g>
                </g>
                <rect id="Rectangle" fill="#FFFFFF" x="42.7" y="168" width="266.7" height="1"></rect>
            </g>
        </g>
    </g>
</svg>